<svg width="434" height="297" viewBox="0 0 434 297" fill="none" xmlns="http://www.w3.org/2000/svg">
<path fill-rule="evenodd" clip-rule="evenodd" d="M279.057 13.3681C268.724 3.30359 254.353 -1.47454 240.053 0.40008C226.128 2.36018 213.759 10.3158 206.197 22.1741C201.881 28.8233 199.251 36.4257 198.536 44.3216L200.448 42.4062C182.753 40.8758 164.95 43.6597 148.566 50.5196C134.807 57.0976 125.087 69.9362 122.487 84.9666C121.131 92.9438 122.823 101.139 127.227 107.927L128.5 104.801C106.897 110.285 88.9549 125.289 79.7327 145.585C75.6021 155.88 74.8784 167.229 77.6678 177.966C80.3903 187.83 86.7034 196.319 95.3659 201.763C104.599 207.849 116.068 209.488 126.636 206.233L123.706 204.57C130.03 223.283 146.202 236.949 165.704 240.059C187.703 244.425 210.529 241.377 230.612 231.392C242.622 225.742 253.53 217.997 262.824 208.522L261.083 209.244C273.301 209.999 285.553 208.488 297.221 204.787C308.013 201.566 318.253 196.725 327.591 190.428C336.236 184.732 343.479 177.152 348.777 168.256C353.588 159.878 355.703 150.22 354.833 140.597C354.132 129.941 348.893 120.097 340.445 113.565V117.944C352.324 108.88 358.878 94.47 357.905 79.5577C356.765 68.0891 351.09 57.5519 342.143 50.2898C333.195 43.0277 321.718 39.6429 310.263 40.8884L312.053 45.2131C320.119 37.4795 322.322 25.4461 317.519 15.3558C312.475 5.54316 301.403 0.420857 290.661 2.92985C284.742 4.10066 279.463 7.41674 275.837 12.2418C275.178 13.3894 275.562 14.8538 276.699 15.5305C277.849 16.1668 279.295 15.7876 279.985 14.6692C285.631 8.04919 294.776 5.60249 302.972 8.51943C311.246 11.7486 316.181 20.2801 314.855 29.0647C314.371 33.9033 312.094 38.3855 308.472 41.6292C307.771 42.3617 307.57 43.439 307.957 44.3755C308.345 45.3121 309.249 45.9312 310.262 45.9539C323.545 44.4453 336.685 49.7825 345.156 60.1267C353.231 70.4194 355.294 84.2042 350.584 96.4107C348.171 103.275 343.747 109.253 337.887 113.565C337.218 113.969 336.77 114.656 336.67 115.432C336.57 116.207 336.83 116.986 337.375 117.546C351.396 130.011 354.216 150.85 344.01 166.594C338.645 175.242 331.335 182.518 322.664 187.844C313.131 193.916 302.713 198.47 291.783 201.342C285.876 202.957 279.826 203.991 273.718 204.432C270.756 204.624 267.782 204.606 264.817 204.51C263.365 204.279 261.889 204.243 260.427 204.402C259.145 205.08 258.034 206.04 257.175 207.208C249.481 214.662 240.712 220.917 231.161 225.766C212.985 235.454 192.238 239.224 171.817 236.548C154.261 234.923 138.674 224.642 130.267 209.142C129.446 207.254 128.787 205.299 128.298 203.299C127.938 202.039 126.634 201.299 125.368 201.637C107.613 206.615 89.0343 197 82.8411 179.628C79.5627 169.971 79.5733 159.5 82.8713 149.849C86.1392 140.22 91.9578 131.658 99.707 125.075C108.441 117.651 118.635 112.144 129.631 108.909C130.264 108.726 130.779 108.263 131.027 107.652C131.275 107.041 131.23 106.35 130.904 105.777C124.134 94.0813 125.128 79.4478 133.418 68.776C142.879 56.6161 156.981 48.9521 172.328 47.6284C181.645 46.353 191.054 45.8854 200.45 46.231C201.496 46.2094 202.339 45.3676 202.363 44.3216C203.669 31.4409 210.373 19.7176 220.811 12.0611C231.444 4.48846 244.837 1.89601 257.527 4.95366C264.903 6.61641 271.784 9.9944 277.611 14.8137C278.016 15.1738 278.631 15.1557 279.015 14.7724C279.398 14.3891 279.416 13.7734 279.056 13.3681H279.057Z" fill="#E7C4B2"/>
<g filter="url(#filter0_d_470_6032)">
<rect x="80" y="49" width="274" height="176" rx="6" fill="white"/>
</g>
<g filter="url(#filter1_d_470_6032)">
<rect x="64" y="41" width="306" height="176" rx="6" fill="white"/>
</g>
<g filter="url(#filter2_d_470_6032)">
<rect x="48" y="33" width="338" height="176" rx="6" fill="white"/>
</g>
<circle cx="92" cy="77" r="20" fill="#F7CC47"/>
<rect x="72" y="111" width="75" height="14" rx="2" fill="#F5DED1"/>
<rect x="72" y="133" width="126" height="6" rx="3" fill="#F5DED1"/>
<path fill-rule="evenodd" clip-rule="evenodd" d="M289.5 109.67C282.456 110.897 275.32 111.52 268.169 111.531V111.53C267.428 111.542 267.211 112.747 267.989 112.864C276.225 113.974 284.593 113.629 292.709 111.845C307.131 108.859 320.693 102.667 332.388 93.729C338.279 89.2616 343.639 84.1352 348.362 78.4502C350.869 75.3734 353.184 72.1495 355.295 68.7971L355.311 68.7192C355.728 66.641 356.151 64.5659 356.588 62.4933C356.873 62.4539 357.158 62.4172 357.444 62.383C358.916 62.212 359.002 59.9878 357.444 60.021C357.334 60.0227 357.224 60.0251 357.114 60.0279C357.213 59.5675 357.313 59.1072 357.415 58.647L360.292 59.857C358.783 62.9246 357.115 65.9086 355.295 68.7971L354.361 73.4845C354.504 73.2424 354.766 73.0874 355.057 73.0874C355.413 73.0874 355.727 73.3194 355.831 73.659C356.125 74.8426 356.29 76.0179 356.458 77.2071C356.514 77.6076 356.571 78.0098 356.633 78.4143L353.41 78.8509C353.436 79.5523 353.912 80.1829 354.621 80.3781C355.476 80.6133 356.364 80.1326 356.633 79.2893C357.112 77.6398 357.463 75.9561 357.685 74.253L358.622 69.4075C359.265 66.1053 359.874 62.7962 360.451 59.4804C360.642 58.7229 360.256 57.9387 359.539 57.6269C358.815 57.3166 357.973 57.5922 357.574 58.2699C357.301 58.8635 357.02 59.4536 356.733 60.0401C354.657 60.1183 352.593 60.3933 350.568 60.8615C349.401 61.1458 348.254 61.5096 347.136 61.9504C346.146 62.2017 345.251 62.7345 344.557 63.4842C344.399 63.7565 344.376 64.0866 344.495 64.3781C344.614 64.6697 344.861 64.8898 345.164 64.9742C346.148 65.0141 347.128 64.8237 348.026 64.4182C348.965 64.1309 349.917 63.8863 350.871 63.6413C350.951 63.6209 351.03 63.6006 351.109 63.5802C352.519 63.2134 353.945 62.9115 355.382 62.6755C352.346 68.3437 348.652 73.6419 344.371 78.4588C334.891 89.2339 323.132 97.7733 309.943 103.46C303.383 106.286 296.525 108.369 289.5 109.67ZM353.896 75.5242C354.016 74.9352 354.152 74.3494 354.304 73.7673L354.361 73.4845C354.329 73.5386 354.303 73.597 354.284 73.659C354.126 74.2819 354.003 74.9026 353.896 75.5242ZM353.896 75.5242C353.672 76.6244 353.503 77.7355 353.392 78.8534L353.41 78.8509C353.405 78.7073 353.419 78.5607 353.453 78.4143C353.515 78.0215 353.572 77.631 353.63 77.242C353.714 76.667 353.798 76.0952 353.896 75.5242Z" fill="#EF6D58"/>
<rect x="72" y="177" width="289" height="6" rx="3" fill="#A0C5F9"/>
<rect x="72" y="177" width="113" height="6" rx="3" fill="#2F63AB"/>
<defs>
<filter id="filter0_d_470_6032" x="32" y="25" width="370" height="272" filterUnits="userSpaceOnUse" color-interpolation-filters="sRGB">
<feFlood flood-opacity="0" result="BackgroundImageFix"/>
<feColorMatrix in="SourceAlpha" type="matrix" values="0 0 0 0 0 0 0 0 0 0 0 0 0 0 0 0 0 0 127 0" result="hardAlpha"/>
<feOffset dy="24"/>
<feGaussianBlur stdDeviation="24"/>
<feColorMatrix type="matrix" values="0 0 0 0 0.333333 0 0 0 0 0.117647 0 0 0 0 0 0 0 0 0.04 0"/>
<feBlend mode="normal" in2="BackgroundImageFix" result="effect1_dropShadow_470_6032"/>
<feBlend mode="normal" in="SourceGraphic" in2="effect1_dropShadow_470_6032" result="shape"/>
</filter>
<filter id="filter1_d_470_6032" x="16" y="17" width="402" height="272" filterUnits="userSpaceOnUse" color-interpolation-filters="sRGB">
<feFlood flood-opacity="0" result="BackgroundImageFix"/>
<feColorMatrix in="SourceAlpha" type="matrix" values="0 0 0 0 0 0 0 0 0 0 0 0 0 0 0 0 0 0 127 0" result="hardAlpha"/>
<feOffset dy="24"/>
<feGaussianBlur stdDeviation="24"/>
<feColorMatrix type="matrix" values="0 0 0 0 0.333333 0 0 0 0 0.117647 0 0 0 0 0 0 0 0 0.04 0"/>
<feBlend mode="normal" in2="BackgroundImageFix" result="effect1_dropShadow_470_6032"/>
<feBlend mode="normal" in="SourceGraphic" in2="effect1_dropShadow_470_6032" result="shape"/>
</filter>
<filter id="filter2_d_470_6032" x="0" y="9" width="434" height="272" filterUnits="userSpaceOnUse" color-interpolation-filters="sRGB">
<feFlood flood-opacity="0" result="BackgroundImageFix"/>
<feColorMatrix in="SourceAlpha" type="matrix" values="0 0 0 0 0 0 0 0 0 0 0 0 0 0 0 0 0 0 127 0" result="hardAlpha"/>
<feOffset dy="24"/>
<feGaussianBlur stdDeviation="24"/>
<feColorMatrix type="matrix" values="0 0 0 0 0.333333 0 0 0 0 0.117647 0 0 0 0 0 0 0 0 0.04 0"/>
<feBlend mode="normal" in2="BackgroundImageFix" result="effect1_dropShadow_470_6032"/>
<feBlend mode="normal" in="SourceGraphic" in2="effect1_dropShadow_470_6032" result="shape"/>
</filter>
</defs>
</svg>
