<svg xmlns="http://www.w3.org/2000/svg" width="282" height="242" viewBox="0 0 282 242" fill="none">
    <path fill-rule="evenodd" clip-rule="evenodd" d="M203.057 13.3681C192.724 3.30359 178.353 -1.47454 164.053 0.40008C150.128 2.36018 137.759 10.3158 130.197 22.1741C125.881 28.8233 123.251 36.4257 122.536 44.3216L124.448 42.4062C106.753 40.8758 88.9499 43.6597 72.5657 50.5196C58.8066 57.0976 49.0869 69.9362 46.487 84.9666C45.1312 92.9438 46.823 101.139 51.2267 107.927L52.4998 104.801C30.8967 110.285 12.9549 125.289 3.73268 145.585C-0.397925 155.88 -1.1216 167.229 1.6678 177.966C4.3903 187.83 10.7034 196.319 19.3659 201.763C28.5991 207.849 40.0684 209.488 50.636 206.233L47.7064 204.57C54.0301 223.283 70.2022 236.949 89.7043 240.059C111.703 244.425 134.529 241.377 154.612 231.392C166.622 225.742 177.53 217.997 186.824 208.522L185.083 209.244C197.301 209.999 209.553 208.488 221.221 204.787C232.013 201.566 242.253 196.725 251.591 190.428C260.236 184.732 267.479 177.152 272.777 168.256C277.588 159.878 279.703 150.22 278.833 140.597C278.132 129.941 272.893 120.097 264.445 113.565V117.944C276.324 108.88 282.878 94.47 281.905 79.5577C280.765 68.0891 275.09 57.5519 266.143 50.2898C257.195 43.0277 245.718 39.6429 234.263 40.8884L236.053 45.2131C244.119 37.4795 246.322 25.4461 241.519 15.3558C236.475 5.54316 225.403 0.420857 214.661 2.92985C208.742 4.10066 203.463 7.41674 199.837 12.2418C199.178 13.3894 199.562 14.8538 200.699 15.5305C201.849 16.1668 203.295 15.7876 203.985 14.6692C209.631 8.04919 218.776 5.60249 226.972 8.51943C235.246 11.7486 240.181 20.2801 238.855 29.0647C238.371 33.9033 236.094 38.3855 232.472 41.6292C231.771 42.3617 231.57 43.439 231.957 44.3755C232.345 45.3121 233.249 45.9312 234.262 45.9539C247.545 44.4453 260.685 49.7825 269.156 60.1267C277.231 70.4194 279.294 84.2042 274.584 96.4107C272.171 103.275 267.747 109.253 261.887 113.565C261.218 113.969 260.77 114.656 260.67 115.432C260.57 116.207 260.83 116.986 261.375 117.546C275.396 130.011 278.216 150.85 268.01 166.594C262.645 175.242 255.335 182.518 246.664 187.844C237.131 193.916 226.713 198.47 215.783 201.342C209.876 202.957 203.826 203.991 197.718 204.432C194.756 204.624 191.782 204.606 188.817 204.51C187.365 204.279 185.889 204.243 184.427 204.402C183.145 205.08 182.034 206.04 181.175 207.208C173.481 214.662 164.712 220.917 155.161 225.766C136.985 235.454 116.238 239.224 95.8171 236.548C78.2614 234.923 62.6744 224.642 54.2666 209.142C53.4457 207.254 52.7872 205.299 52.298 203.299C51.938 202.039 50.6344 201.299 49.3678 201.637C31.6129 206.615 13.0343 197 6.84114 179.628C3.56271 169.971 3.5733 159.5 6.87125 149.849C10.1392 140.22 15.9578 131.658 23.707 125.075C32.4407 117.651 42.6353 112.144 53.6313 108.909C54.2645 108.726 54.7789 108.263 55.0271 107.652C55.2754 107.041 55.2301 106.35 54.9043 105.777C48.134 94.0813 49.1283 79.4478 57.4184 68.776C66.8794 56.6161 80.9806 48.9521 96.3283 47.6284C105.645 46.353 115.054 45.8854 124.45 46.231C125.496 46.2094 126.339 45.3676 126.363 44.3216C127.669 31.4409 134.373 19.7176 144.811 12.0611C155.444 4.48846 168.837 1.89601 181.527 4.95366C188.903 6.61641 195.784 9.9944 201.611 14.8137C202.016 15.1738 202.631 15.1557 203.015 14.7724C203.398 14.3891 203.416 13.7734 203.056 13.3681H203.057Z" fill="#E7C4B2"/>
  </svg>