<svg xmlns="http://www.w3.org/2000/svg" width="94" height="57" viewBox="0 0 94 57" fill="none">
    <path fill-rule="evenodd" clip-rule="evenodd" d="M22.5002 52.6701C15.4561 53.8968 8.31962 54.5195 1.16904 54.5313V54.5305C0.428261 54.5419 0.211349 55.7467 0.98896 55.8639C9.22504 56.974 17.5926 56.6291 25.7089 54.8451C40.1307 51.8586 53.6929 45.6665 65.3877 36.729C71.2793 32.2616 76.6388 27.1352 81.3616 21.4502C83.8688 18.3734 86.184 15.1495 88.2954 11.7971L88.311 11.7192C88.7281 9.64097 89.1514 7.56589 89.5878 5.49325C89.8727 5.45392 90.158 5.41716 90.4436 5.38299C91.9155 5.21202 92.0016 2.98777 90.4436 3.02098C90.3336 3.02275 90.2236 3.02507 90.1136 3.02794C90.2131 2.56752 90.3135 2.1072 90.4146 1.64699L93.2918 2.85704C91.7827 5.92459 90.1147 8.90857 88.2954 11.7971L87.3606 16.4845C87.5036 16.2424 87.7664 16.0874 88.0572 16.0874C88.413 16.0874 88.7269 16.3194 88.8308 16.659C89.1247 17.8426 89.2903 19.0179 89.4579 20.2071C89.5144 20.6076 89.5711 21.0098 89.6329 21.4143L86.4102 21.8509C86.436 22.5523 86.912 23.1829 87.6214 23.3781C88.476 23.6133 89.3641 23.1326 89.6329 22.2893C90.1117 20.6398 90.4634 18.9561 90.6848 17.253L91.622 12.4075C92.2645 9.10529 92.8744 5.79624 93.4514 2.48038C93.6424 1.72289 93.2563 0.938679 92.5387 0.626907C91.8151 0.316608 90.9733 0.592167 90.5742 1.26992C90.3007 1.86353 90.0203 2.45362 89.7329 3.04008C87.6571 3.11832 85.5928 3.39326 83.5679 3.86148C82.4005 4.1458 81.2539 4.50964 80.1362 4.95044C79.1464 5.20173 78.2506 5.73449 77.5573 6.48425C77.3993 6.75651 77.3763 7.0866 77.495 7.37814C77.6138 7.66968 77.8609 7.88979 78.1641 7.97419C79.1483 8.01411 80.1282 7.82374 81.0259 7.41823C81.9647 7.13092 82.9174 6.88625 83.8712 6.64131C83.9505 6.62095 84.0298 6.60058 84.1091 6.58019C85.5192 6.21336 86.945 5.91151 88.382 5.67549C85.3461 11.3437 81.6516 16.6419 77.3712 21.4588C67.8909 32.2339 56.132 40.7733 42.9433 46.4605C36.3826 49.2857 29.5255 51.3685 22.5002 52.6701ZM86.8961 18.5242C87.0162 17.9352 87.1523 17.3494 87.3042 16.7673L87.3606 16.4845C87.3286 16.5386 87.3027 16.597 87.2837 16.659C87.1258 17.2819 87.0028 17.9026 86.8961 18.5242ZM86.8961 18.5242C86.6719 19.6244 86.5034 20.7355 86.3915 21.8534L86.4102 21.8509C86.405 21.7073 86.4186 21.5607 86.4529 21.4143C86.515 21.0215 86.5724 20.631 86.6296 20.242C86.7141 19.667 86.7982 19.0952 86.8961 18.5242Z" fill="#EF6D58"/>
  </svg>