<svg xmlns="http://www.w3.org/2000/svg" width="20" height="20" viewBox="0 0 20 20" fill="none">
    <path d="M10 0.00671387C8.68678 0.00671387 7.38642 0.265372 6.17317 0.767919C4.95991 1.27047 3.85752 2.00706 2.92893 2.93565C1.05357 4.81101 0 7.35455 0 10.0067C0 14.4267 2.87 18.1767 6.84 19.5067C7.34 19.5867 7.5 19.2767 7.5 19.0067V17.3167C4.73 17.9167 4.14 15.9767 4.14 15.9767C3.68 14.8167 3.03 14.5067 3.03 14.5067C2.12 13.8867 3.1 13.9067 3.1 13.9067C4.1 13.9767 4.63 14.9367 4.63 14.9367C5.5 16.4567 6.97 16.0067 7.54 15.7667C7.63 15.1167 7.89 14.6767 8.17 14.4267C5.95 14.1767 3.62 13.3167 3.62 9.50671C3.62 8.39671 4 7.50671 4.65 6.79671C4.55 6.54671 4.2 5.50671 4.75 4.15671C4.75 4.15671 5.59 3.88671 7.5 5.17671C8.29 4.95671 9.15 4.84671 10 4.84671C10.85 4.84671 11.71 4.95671 12.5 5.17671C14.41 3.88671 15.25 4.15671 15.25 4.15671C15.8 5.50671 15.45 6.54671 15.35 6.79671C16 7.50671 16.38 8.39671 16.38 9.50671C16.38 13.3267 14.04 14.1667 11.81 14.4167C12.17 14.7267 12.5 15.3367 12.5 16.2667V19.0067C12.5 19.2767 12.66 19.5967 13.17 19.5067C17.14 18.1667 20 14.4267 20 10.0067C20 8.69349 19.7413 7.39314 19.2388 6.17988C18.7362 4.96662 17.9997 3.86423 17.0711 2.93565C16.1425 2.00706 15.0401 1.27047 13.8268 0.767919C12.6136 0.265372 11.3132 0.00671387 10 0.00671387Z" fill="url(#paint0_linear_225_6405)"/>
    <defs>
      <linearGradient id="paint0_linear_225_6405" x1="0" y1="0.00671387" x2="8.7799" y2="0.00671387" gradientUnits="userSpaceOnUse">
        <stop stop-color="#5B21B6"/>
        <stop offset="1" stop-color="#9D174D"/>
      </linearGradient>
    </defs>
  </svg>