<svg xmlns="http://www.w3.org/2000/svg" width="20" height="20" viewBox="0 0 20 20" fill="none">
    <path d="M15.34 3.46671C15.1027 3.46671 14.8707 3.53709 14.6733 3.66895C14.476 3.80081 14.3222 3.98822 14.2313 4.20749C14.1405 4.42676 14.1168 4.66805 14.1631 4.90082C14.2094 5.1336 14.3236 5.34742 14.4915 5.51524C14.6593 5.68306 14.8731 5.79735 15.1059 5.84366C15.3387 5.88996 15.5799 5.86619 15.7992 5.77537C16.0185 5.68454 16.2059 5.53074 16.3378 5.3334C16.4696 5.13606 16.54 4.90405 16.54 4.66671C16.54 4.34845 16.4136 4.04323 16.1885 3.81819C15.9635 3.59314 15.6583 3.46671 15.34 3.46671ZM19.94 5.88671C19.9206 5.05701 19.7652 4.23612 19.48 3.45671C19.2257 2.78985 18.83 2.18599 18.32 1.68671C17.8248 1.17414 17.2196 0.78089 16.55 0.536714C15.7727 0.242875 14.9508 0.0839239 14.12 0.0667138C13.06 0.00671381 12.72 0.00671387 10 0.00671387C7.28 0.00671387 6.94 0.00671381 5.88 0.0667138C5.04915 0.0839239 4.22734 0.242875 3.45 0.536714C2.78168 0.783362 2.17693 1.17627 1.68 1.68671C1.16743 2.18189 0.774176 2.78715 0.53 3.45671C0.236161 4.23406 0.07721 5.05587 0.0599999 5.88671C-5.58794e-08 6.94671 0 7.28671 0 10.0067C0 12.7267 -5.58794e-08 13.0667 0.0599999 14.1267C0.07721 14.9576 0.236161 15.7794 0.53 16.5567C0.774176 17.2263 1.16743 17.8315 1.68 18.3267C2.17693 18.8372 2.78168 19.2301 3.45 19.4767C4.22734 19.7706 5.04915 19.9295 5.88 19.9467C6.94 20.0067 7.28 20.0067 10 20.0067C12.72 20.0067 13.06 20.0067 14.12 19.9467C14.9508 19.9295 15.7727 19.7706 16.55 19.4767C17.2196 19.2325 17.8248 18.8393 18.32 18.3267C18.8322 17.8293 19.2283 17.2249 19.48 16.5567C19.7652 15.7773 19.9206 14.9564 19.94 14.1267C19.94 13.0667 20 12.7267 20 10.0067C20 7.28671 20 6.94671 19.94 5.88671ZM18.14 14.0067C18.1327 14.6415 18.0178 15.2704 17.8 15.8667C17.6403 16.3019 17.3839 16.6951 17.05 17.0167C16.7256 17.3472 16.3332 17.6031 15.9 17.7667C15.3037 17.9845 14.6748 18.0994 14.04 18.1067C13.04 18.1567 12.67 18.1667 10.04 18.1667C7.41 18.1667 7.04 18.1667 6.04 18.1067C5.38089 18.1191 4.72459 18.0176 4.1 17.8067C3.68578 17.6348 3.31136 17.3795 3 17.0567C2.66809 16.7355 2.41484 16.3419 2.26 15.9067C2.01586 15.3019 1.88044 14.6587 1.86 14.0067C1.86 13.0067 1.8 12.6367 1.8 10.0067C1.8 7.37671 1.8 7.00671 1.86 6.00671C1.86448 5.35777 1.98295 4.71466 2.21 4.10671C2.38605 3.68462 2.65627 3.30837 3 3.00671C3.30381 2.66288 3.67929 2.38981 4.1 2.20671C4.70955 1.98676 5.352 1.87179 6 1.86671C7 1.86671 7.37 1.80671 10 1.80671C12.63 1.80671 13 1.80671 14 1.86671C14.6348 1.87399 15.2637 1.98896 15.86 2.20671C16.3144 2.37537 16.7223 2.64956 17.05 3.00671C17.3777 3.31389 17.6338 3.68945 17.8 4.10671C18.0223 4.71565 18.1373 5.35849 18.14 6.00671C18.19 7.00671 18.2 7.37671 18.2 10.0067C18.2 12.6367 18.19 13.0067 18.14 14.0067ZM10 4.87671C8.98581 4.87869 7.99496 5.18124 7.15265 5.74613C6.31035 6.31102 5.65438 7.11291 5.26763 8.05047C4.88089 8.98802 4.78072 10.0192 4.97979 11.0136C5.17886 12.0081 5.66824 12.9212 6.38608 13.6377C7.10392 14.3541 8.01801 14.8417 9.01286 15.0389C10.0077 15.236 11.0387 15.1338 11.9755 14.7453C12.9123 14.3567 13.7129 13.6992 14.2761 12.8557C14.8394 12.0123 15.14 11.0209 15.14 10.0067C15.1413 9.33182 15.0092 8.66332 14.7512 8.03967C14.4933 7.41602 14.1146 6.84952 13.6369 6.37276C13.1592 5.89601 12.5919 5.51839 11.9678 5.26164C11.3436 5.00489 10.6749 4.87408 10 4.87671ZM10 13.3367C9.34139 13.3367 8.69757 13.1414 8.14995 12.7755C7.60234 12.4096 7.17552 11.8895 6.92348 11.281C6.67144 10.6726 6.6055 10.003 6.73398 9.35706C6.86247 8.71111 7.17963 8.11776 7.64533 7.65205C8.11104 7.18634 8.70439 6.86919 9.35035 6.7407C9.99631 6.61221 10.6659 6.67815 11.2743 6.93019C11.8828 7.18223 12.4029 7.60905 12.7688 8.15666C13.1347 8.70428 13.33 9.3481 13.33 10.0067C13.33 10.444 13.2439 10.877 13.0765 11.281C12.9092 11.6851 12.6639 12.0522 12.3547 12.3614C12.0454 12.6706 11.6784 12.9159 11.2743 13.0832C10.8703 13.2506 10.4373 13.3367 10 13.3367Z" fill="url(#paint0_linear_225_6396)"/>
    <defs>
      <linearGradient id="paint0_linear_225_6396" x1="0" y1="0.00671387" x2="8.7799" y2="0.00671387" gradientUnits="userSpaceOnUse">
        <stop stop-color="#5B21B6"/>
        <stop offset="1" stop-color="#9D174D"/>
      </linearGradient>
    </defs>
  </svg>