<svg xmlns="http://www.w3.org/2000/svg" width="18" height="18" viewBox="0 0 18 18" fill="none">
  <path d="M16 0.00671387C16.5304 0.00671387 17.0391 0.217427 17.4142 0.5925C17.7893 0.967573 18 1.47628 18 2.00671V16.0067C18 16.5371 17.7893 17.0459 17.4142 17.4209C17.0391 17.796 16.5304 18.0067 16 18.0067H2C1.46957 18.0067 0.960859 17.796 0.585786 17.4209C0.210714 17.0459 0 16.5371 0 16.0067V2.00671C0 1.47628 0.210714 0.967573 0.585786 0.5925C0.960859 0.217427 1.46957 0.00671387 2 0.00671387H16ZM15.5 15.5067V10.2067C15.5 9.34211 15.1565 8.51291 14.5452 7.90155C13.9338 7.29018 13.1046 6.94671 12.24 6.94671C11.39 6.94671 10.4 7.46671 9.92 8.24671V7.13671H7.13V15.5067H9.92V10.5767C9.92 9.80671 10.54 9.17671 11.31 9.17671C11.6813 9.17671 12.0374 9.32421 12.2999 9.58676C12.5625 9.84932 12.71 10.2054 12.71 10.5767V15.5067H15.5ZM3.88 5.56671C4.32556 5.56671 4.75288 5.38971 5.06794 5.07465C5.383 4.75959 5.56 4.33228 5.56 3.88671C5.56 2.95671 4.81 2.19671 3.88 2.19671C3.43178 2.19671 3.00193 2.37477 2.68499 2.6917C2.36805 3.00864 2.19 3.4385 2.19 3.88671C2.19 4.81671 2.95 5.56671 3.88 5.56671ZM5.27 15.5067V7.13671H2.5V15.5067H5.27Z" fill="url(#paint0_linear_225_6392)"/>
  <defs>
    <linearGradient id="paint0_linear_225_6392" x1="0" y1="0.00671387" x2="7.90191" y2="0.00671387" gradientUnits="userSpaceOnUse">
      <stop stop-color="#5B21B6"/>
      <stop offset="1" stop-color="#9D174D"/>
    </linearGradient>
  </defs>
</svg>